<svg id="visual" viewBox="0 0 3000 1500" width="3000" height="1500" xmlns="http://www.w3.org/2000/svg" xmlnsXlink="http://www.w3.org/1999/xlink" version="1.1">
    <rect x="0" y="0" width="3000" height="1500" fill="#15202B"></rect>
    <path d="M0 631L55.5 653.7C111 676.3 222 721.7 333.2 733.7C444.3 745.7 555.7 724.3 666.8 722.2C778 720 889 737 1000 741C1111 745 1222 736 1333.2 745.8C1444.3 755.7 1555.7 784.3 1666.8 772.5C1778 760.7 1889 708.3 2000 672.7C2111 637 2222 618 2333.2 639.8C2444.3 661.7 2555.7 724.3 2666.8 727C2778 729.7 2889 672.3 2944.5 643.7L3000 615L3000 1501L2944.5 1501C2889 1501 2778 1501 2666.8 1501C2555.7 1501 2444.3 1501 2333.2 1501C2222 1501 2111 1501 2000 1501C1889 1501 1778 1501 1666.8 1501C1555.7 1501 1444.3 1501 1333.2 1501C1222 1501 1111 1501 1000 1501C889 1501 778 1501 666.8 1501C555.7 1501 444.3 1501 333.2 1501C222 1501 111 1501 55.5 1501L0 1501Z" fill="#192734"></path>
    <path d="M0 859L55.5 848.2C111 837.3 222 815.7 333.2 822.7C444.3 829.7 555.7 865.3 666.8 880.7C778 896 889 891 1000 894.5C1111 898 1222 910 1333.2 896.5C1444.3 883 1555.7 844 1666.8 839.8C1778 835.7 1889 866.3 2000 864.2C2111 862 2222 827 2333.2 802.7C2444.3 778.3 2555.7 764.7 2666.8 782.5C2778 800.3 2889 849.7 2944.5 874.3L3000 899L3000 1501L2944.5 1501C2889 1501 2778 1501 2666.8 1501C2555.7 1501 2444.3 1501 2333.2 1501C2222 1501 2111 1501 2000 1501C1889 1501 1778 1501 1666.8 1501C1555.7 1501 1444.3 1501 1333.2 1501C1222 1501 1111 1501 1000 1501C889 1501 778 1501 666.8 1501C555.7 1501 444.3 1501 333.2 1501C222 1501 111 1501 55.5 1501L0 1501Z" fill="#0f3250"></path>
    <path d="M0 892L55.5 901.5C111 911 222 930 333.2 942.7C444.3 955.3 555.7 961.7 666.8 945.7C778 929.7 889 891.3 1000 873C1111 854.7 1222 856.3 1333.2 875.5C1444.3 894.7 1555.7 931.3 1666.8 962.8C1778 994.3 1889 1020.7 2000 1005.8C2111 991 2222 935 2333.2 917.7C2444.3 900.3 2555.7 921.7 2666.8 927C2778 932.3 2889 921.7 2944.5 916.3L3000 911L3000 1501L2944.5 1501C2889 1501 2778 1501 2666.8 1501C2555.7 1501 2444.3 1501 2333.2 1501C2222 1501 2111 1501 2000 1501C1889 1501 1778 1501 1666.8 1501C1555.7 1501 1444.3 1501 1333.2 1501C1222 1501 1111 1501 1000 1501C889 1501 778 1501 666.8 1501C555.7 1501 444.3 1501 333.2 1501C222 1501 111 1501 55.5 1501L0 1501Z" fill="#003c6d"></path><path d="M0 1026L55.5 1044.5C111 1063 222 1100 333.2 1117.3C444.3 1134.7 555.7 1132.3 666.8 1122.7C778 1113 889 1096 1000 1097.7C1111 1099.3 1222 1119.7 1333.2 1123.7C1444.3 1127.7 1555.7 1115.3 1666.8 1092.8C1778 1070.3 1889 1037.7 2000 1044C2111 1050.3 2222 1095.7 2333.2 1110.7C2444.3 1125.7 2555.7 1110.3 2666.8 1078C2778 1045.7 2889 996.3 2944.5 971.7L3000 947L3000 1501L2944.5 1501C2889 1501 2778 1501 2666.8 1501C2555.7 1501 2444.3 1501 2333.2 1501C2222 1501 2111 1501 2000 1501C1889 1501 1778 1501 1666.8 1501C1555.7 1501 1444.3 1501 1333.2 1501C1222 1501 1111 1501 1000 1501C889 1501 778 1501 666.8 1501C555.7 1501 444.3 1501 333.2 1501C222 1501 111 1501 55.5 1501L0 1501Z" fill="#00458a"></path>
    <path d="M0 1063L55.5 1079.8C111 1096.7 222 1130.3 333.2 1160C444.3 1189.7 555.7 1215.3 666.8 1202C778 1188.7 889 1136.3 1000 1116.7C1111 1097 1222 1110 1333.2 1106C1444.3 1102 1555.7 1081 1666.8 1079.2C1778 1077.3 1889 1094.7 2000 1118.3C2111 1142 2222 1172 2333.2 1164.5C2444.3 1157 2555.7 1112 2666.8 1099.8C2778 1087.7 2889 1108.3 2944.5 1118.7L3000 1129L3000 1501L2944.5 1501C2889 1501 2778 1501 2666.8 1501C2555.7 1501 2444.3 1501 2333.2 1501C2222 1501 2111 1501 2000 1501C1889 1501 1778 1501 1666.8 1501C1555.7 1501 1444.3 1501 1333.2 1501C1222 1501 1111 1501 1000 1501C889 1501 778 1501 666.8 1501C555.7 1501 444.3 1501 333.2 1501C222 1501 111 1501 55.5 1501L0 1501Z" fill="#004da7"></path>
    <path d="M0 1237L55.5 1229.7C111 1222.3 222 1207.7 333.2 1206.5C444.3 1205.3 555.7 1217.7 666.8 1231.2C778 1244.7 889 1259.3 1000 1250.5C1111 1241.7 1222 1209.3 1333.2 1214.3C1444.3 1219.3 1555.7 1261.7 1666.8 1288.3C1778 1315 1889 1326 2000 1336.3C2111 1346.7 2222 1356.3 2333.2 1349.3C2444.3 1342.3 2555.7 1318.7 2666.8 1316.5C2778 1314.3 2889 1333.7 2944.5 1343.3L3000 1353L3000 1501L2944.5 1501C2889 1501 2778 1501 2666.8 1501C2555.7 1501 2444.3 1501 2333.2 1501C2222 1501 2111 1501 2000 1501C1889 1501 1778 1501 1666.8 1501C1555.7 1501 1444.3 1501 1333.2 1501C1222 1501 1111 1501 1000 1501C889 1501 778 1501 666.8 1501C555.7 1501 444.3 1501 333.2 1501C222 1501 111 1501 55.5 1501L0 1501Z" fill="#0054c4"></path>
    <path d="M0 1318L55.5 1344.8C111 1371.7 222 1425.3 333.2 1426.8C444.3 1428.3 555.7 1377.7 666.8 1351.5C778 1325.3 889 1323.7 1000 1328.3C1111 1333 1222 1344 1333.2 1360.3C1444.3 1376.7 1555.7 1398.3 1666.8 1394.3C1778 1390.3 1889 1360.7 2000 1351.3C2111 1342 2222 1353 2333.2 1365.8C2444.3 1378.7 2555.7 1393.3 2666.8 1386C2778 1378.7 2889 1349.3 2944.5 1334.7L3000 1320L3000 1501L2944.5 1501C2889 1501 2778 1501 2666.8 1501C2555.7 1501 2444.3 1501 2333.2 1501C2222 1501 2111 1501 2000 1501C1889 1501 1778 1501 1666.8 1501C1555.7 1501 1444.3 1501 1333.2 1501C1222 1501 1111 1501 1000 1501C889 1501 778 1501 666.8 1501C555.7 1501 444.3 1501 333.2 1501C222 1501 111 1501 55.5 1501L0 1501Z" fill="#065ae1"></path>
    </svg>