<svg id="visual" viewBox="0 0 900 600" width="900" height="600" xmlns="http://www.w3.org/2000/svg" xmlns:xlink="http://www.w3.org/1999/xlink" version="1.1"><path d="M0 25L180 37L360 19L540 19L720 25L900 37L900 0L720 0L540 0L360 0L180 0L0 0Z" fill="#065ae1"></path><path d="M0 67L180 73L360 61L540 43L720 67L900 61L900 35L720 23L540 17L360 17L180 35L0 23Z" fill="#004fb3"></path><path d="M0 127L180 103L360 157L540 97L720 139L900 91L900 59L720 65L540 41L360 59L180 71L0 65Z" fill="#004185"></path><path d="M0 163L180 115L360 181L540 145L720 181L900 121L900 89L720 137L540 95L360 155L180 101L0 125Z" fill="#043257"></path><path d="M0 271L180 277L360 355L540 271L720 259L900 223L900 119L720 179L540 143L360 179L180 113L0 161Z" fill="#15202b"></path><path d="M0 289L180 313L360 373L540 295L720 307L900 265L900 221L720 257L540 269L360 353L180 275L0 269Z" fill="#15202b"></path><path d="M0 511L180 463L360 451L540 451L720 451L900 379L900 263L720 305L540 293L360 371L180 311L0 287Z" fill="#15202b"></path><path d="M0 535L180 487L360 475L540 493L720 463L900 397L900 377L720 449L540 449L360 449L180 461L0 509Z" fill="#043257"></path><path d="M0 553L180 541L360 541L540 535L720 481L900 457L900 395L720 461L540 491L360 473L180 485L0 533Z" fill="#004185"></path><path d="M0 589L180 589L360 589L540 577L720 577L900 589L900 455L720 479L540 533L360 539L180 539L0 551Z" fill="#004fb3"></path><path d="M0 601L180 601L360 601L540 601L720 601L900 601L900 587L720 575L540 575L360 587L180 587L0 587Z" fill="#065ae1"></path></svg>